<svg width="40" height="40" viewBox="0 0 40 40" fill="none" xmlns="http://www.w3.org/2000/svg">
<rect width="40" height="40" fill="#000000"/>
<path d="M20.3235 18.0785L26.8922 12.1765L28.2059 13.6275L21.8431 19.3431C21.9118 19.5490 21.9608 19.7647 21.9608 20C21.9608 21.0784 21.0784 21.9608 20 21.9608C19.5017 21.9608 19.0453 21.7724 18.6983 21.4633L9.83887 26.5768L9.34877 25.7278L18.1498 20.6480C18.0782 20.4449 18.0392 20.2268 18.0392 20C18.0392 19.9706 18.0441 19.9437 18.0490 19.9167C18.0539 19.8897 18.0588 19.8627 18.0588 19.8333L13.5392 16.7451L14.6373 15.1176L19.1765 18.2255C19.4314 18.1078 19.7059 18.0392 20 18.0392C20.1078 18.0392 20.2157 18.0588 20.3235 18.0785Z" fill="#F4F4F4"/>
<path fill-rule="evenodd" clip-rule="evenodd" d="M36.6667 20C36.6667 29.2047 29.2047 36.6667 20 36.6667C10.7953 36.6667 3.33333 29.2047 3.33333 20C3.33333 10.7953 10.7953 3.33333 20 3.33333C29.2047 3.33333 36.6667 10.7953 36.6667 20ZM19.0196 33.6910V30.7843H20.9804V33.6910C27.7793 33.2112 33.2112 27.7793 33.6910 20.9804H30.7843V19.0196H33.6910C33.2112 12.2206 27.7793 6.78882 20.9804 6.30898V9.21569H19.0196V6.30898C12.2206 6.78882 6.78882 12.2206 6.30898 19.0196H9.21569V20.9804H6.30898C6.78882 27.7793 12.2206 33.2112 19.0196 33.6910Z" fill="#F4F4F4"/>
</svg>
